{
    "asset" : {
        "generator" : "Khronos glTF Blender I/O v1.6.16",
        "version" : "2.0"
    },
    "scene" : 0,
    "scenes" : [
        {
            "name" : "character",
            "nodes" : [
                0,
                1,
                2
            ]
        },
        {
            "name" : "wall",
            "nodes" : [
                3
            ]
        }
    ],
    "nodes" : [
        {
            "mesh" : 0,
            "name" : "character",
            "rotation" : [
                0,
                -1,
                0,
                7.549790126404332e-08
            ],
            "scale" : [
                1,
                1.7000000476837158,
                1
            ],
            "translation" : [
                -0.004229886457324028,
                0.8500000238418579,
                0.0008523352444171906
            ]
        },
        {
            "name" : "Point",
            "translation" : [
                0.21740734577178955,
                0.9641594290733337,
                0.32064133882522583
            ]
        },
        {
            "mesh" : 1,
            "name" : "grass",
            "rotation" : [
                0,
                1,
                0,
                7.549790126404332e-08
            ],
            "translation" : [
                -1.075492024421692,
                0,
                0
            ]
        },
        {
            "mesh" : 2,
            "name" : "wall"
        }
    ],
    "materials" : [
        {
            "name" : "Material.005",
            "pbrMetallicRoughness" : {
                "baseColorFactor" : [
                    0.8000000715255737,
                    0.021121758967638016,
                    0.018460122868418694,
                    1
                ],
                "metallicFactor" : 0.2717920243740082,
                "roughnessFactor" : 0.19732442498207092
            }
        },
        {
            "doubleSided" : true,
            "name" : "Material.002",
            "pbrMetallicRoughness" : {
                "baseColorFactor" : [
                    0.08889757841825485,
                    0.22026097774505615,
                    0.012368384748697281,
                    1
                ],
                "metallicFactor" : 0,
                "roughnessFactor" : 0.5
            }
        },
        {
            "doubleSided" : true,
            "name" : "Material.003",
            "pbrMetallicRoughness" : {
                "baseColorFactor" : [
                    0.025370454415678978,
                    0.012476454488933086,
                    0.0030949071515351534,
                    1
                ],
                "metallicFactor" : 0,
                "roughnessFactor" : 0.5
            }
        }
    ],
    "meshes" : [
        {
            "name" : "character",
            "primitives" : [
                {
                    "attributes" : {
                        "POSITION" : 0,
                        "NORMAL" : 1,
                        "TEXCOORD_0" : 2
                    },
                    "indices" : 3,
                    "material" : 0
                }
            ]
        },
        {
            "name" : "grass",
            "primitives" : [
                {
                    "attributes" : {
                        "POSITION" : 4,
                        "NORMAL" : 5,
                        "TEXCOORD_0" : 6
                    },
                    "indices" : 7,
                    "material" : 1
                }
            ]
        },
        {
            "name" : "wall",
            "primitives" : [
                {
                    "attributes" : {
                        "POSITION" : 8,
                        "NORMAL" : 9,
                        "TEXCOORD_0" : 10
                    },
                    "indices" : 11,
                    "material" : 2
                }
            ]
        }
    ],
    "accessors" : [
        {
            "bufferView" : 0,
            "componentType" : 5126,
            "count" : 324,
            "max" : [
                0.2961770296096802,
                0.38743701577186584,
                0.09545248746871948
            ],
            "min" : [
                -0.3046368360519409,
                -0.3223628103733063,
                -0.09699045121669769
            ],
            "type" : "VEC3"
        },
        {
            "bufferView" : 1,
            "componentType" : 5126,
            "count" : 324,
            "type" : "VEC3"
        },
        {
            "bufferView" : 2,
            "componentType" : 5126,
            "count" : 324,
            "type" : "VEC2"
        },
        {
            "bufferView" : 3,
            "componentType" : 5123,
            "count" : 594,
            "type" : "SCALAR"
        },
        {
            "bufferView" : 4,
            "componentType" : 5126,
            "count" : 100,
            "max" : [
                0.5001304745674133,
                0.04435580596327782,
                0.49989813566207886
            ],
            "min" : [
                -0.49986952543258667,
                -0.01035118568688631,
                -0.5001018643379211
            ],
            "type" : "VEC3"
        },
        {
            "bufferView" : 5,
            "componentType" : 5126,
            "count" : 100,
            "type" : "VEC3"
        },
        {
            "bufferView" : 6,
            "componentType" : 5126,
            "count" : 100,
            "type" : "VEC2"
        },
        {
            "bufferView" : 7,
            "componentType" : 5123,
            "count" : 150,
            "type" : "SCALAR"
        },
        {
            "bufferView" : 8,
            "componentType" : 5126,
            "count" : 24,
            "max" : [
                0.05000002309679985,
                1,
                0
            ],
            "min" : [
                -0.05000002309679985,
                0,
                -1
            ],
            "type" : "VEC3"
        },
        {
            "bufferView" : 9,
            "componentType" : 5126,
            "count" : 24,
            "type" : "VEC3"
        },
        {
            "bufferView" : 10,
            "componentType" : 5126,
            "count" : 24,
            "type" : "VEC2"
        },
        {
            "bufferView" : 11,
            "componentType" : 5123,
            "count" : 36,
            "type" : "SCALAR"
        }
    ],
    "bufferViews" : [
        {
            "buffer" : 0,
            "byteLength" : 3888,
            "byteOffset" : 0
        },
        {
            "buffer" : 0,
            "byteLength" : 3888,
            "byteOffset" : 3888
        },
        {
            "buffer" : 0,
            "byteLength" : 2592,
            "byteOffset" : 7776
        },
        {
            "buffer" : 0,
            "byteLength" : 1188,
            "byteOffset" : 10368
        },
        {
            "buffer" : 0,
            "byteLength" : 1200,
            "byteOffset" : 11556
        },
        {
            "buffer" : 0,
            "byteLength" : 1200,
            "byteOffset" : 12756
        },
        {
            "buffer" : 0,
            "byteLength" : 800,
            "byteOffset" : 13956
        },
        {
            "buffer" : 0,
            "byteLength" : 300,
            "byteOffset" : 14756
        },
        {
            "buffer" : 0,
            "byteLength" : 288,
            "byteOffset" : 15056
        },
        {
            "buffer" : 0,
            "byteLength" : 288,
            "byteOffset" : 15344
        },
        {
            "buffer" : 0,
            "byteLength" : 192,
            "byteOffset" : 15632
        },
        {
            "buffer" : 0,
            "byteLength" : 72,
            "byteOffset" : 15824
        }
    ],
    "buffers" : [
        {
            "byteLength" : 15896,
            "uri" : "models.bin"
        }
    ]
}
